<?xml version="1.0" standalone="no"?>
<!DOCTYPE svg PUBLIC "-//W3C//DTD SVG 20010904//EN"
 "http://www.w3.org/TR/2001/REC-SVG-20010904/DTD/svg10.dtd">
<svg version="1.0" xmlns="http://www.w3.org/2000/svg"
 width="981.000000pt" height="968.000000pt" viewBox="0 0 981.000000 968.000000"
 preserveAspectRatio="xMidYMid meet">

<g transform="translate(0.000000,968.000000) scale(0.100000,-0.100000)"
fill="#000000" stroke="none">
<path d="M5020 9674 c-145 -19 -309 -68 -435 -131 -317 -159 -572 -473 -656
-808 -26 -101 -38 -421 -20 -533 38 -244 172 -493 365 -680 147 -143 296 -232
489 -297 173 -57 353 -76 527 -55 374 46 698 247 904 560 273 413 274 984 4
1377 -63 93 -226 259 -323 332 -124 93 -305 172 -485 212 -83 19 -299 32 -370
23z m191 -645 c3 -31 9 -61 12 -66 4 -6 31 -22 61 -36 110 -52 162 -125 181
-250 l7 -47 -111 0 c-121 0 -131 5 -131 65 0 69 -115 105 -159 49 -15 -18 -21
-41 -21 -73 0 -60 27 -87 169 -167 122 -69 197 -133 222 -189 22 -47 25 -148
7 -209 -19 -62 -99 -139 -168 -161 -71 -22 -83 -35 -90 -92 l-5 -48 -44 0 -45
0 -10 50 -11 50 -93 46 c-52 26 -107 59 -123 75 -42 40 -69 103 -72 164 -2 49
0 54 23 61 34 9 162 11 176 1 7 -4 18 -27 25 -51 19 -63 60 -101 110 -101 53
0 78 14 95 55 35 84 6 122 -166 220 -164 93 -205 132 -225 210 -18 71 -18 88
-4 157 10 44 21 62 73 114 49 49 73 65 121 80 l60 19 8 55 c12 83 11 81 69 78
l53 -3 6 -56z"/>
<path d="M2160 6829 c-77 -15 -144 -56 -212 -127 -118 -126 -144 -206 -154
-472 -8 -195 4 -323 47 -543 31 -155 32 -158 13 -178 -10 -12 -37 -30 -59 -41
-122 -63 -250 -174 -367 -320 -107 -135 -235 -332 -292 -450 -46 -96 -54 -108
-81 -113 -48 -8 -306 -23 -620 -36 -159 -7 -299 -15 -310 -20 -37 -13 -83
-208 -110 -461 -19 -183 -19 -301 0 -442 39 -292 161 -549 359 -754 107 -111
188 -172 316 -240 l95 -51 91 19 c297 61 558 152 825 286 139 69 223 122 312
198 105 90 109 81 60 -144 -57 -266 -181 -490 -377 -683 -109 -108 -209 -178
-394 -277 l-152 -82 25 -46 c33 -59 105 -142 316 -363 l168 -177 127 -448
c192 -683 220 -769 265 -810 12 -11 43 -18 88 -22 139 -10 836 42 917 68 39
13 68 45 83 90 6 19 31 136 56 259 25 123 48 228 51 232 9 16 26 10 154 -50
215 -102 502 -189 752 -228 163 -25 921 -25 1077 0 304 49 616 158 870 302 63
36 116 63 118 61 2 -2 -29 -79 -68 -172 -94 -224 -144 -358 -158 -425 -11 -50
-11 -55 9 -71 28 -22 69 -34 205 -58 207 -35 590 -51 724 -29 148 24 176 57
431 509 202 359 357 624 633 1085 331 551 427 756 526 1120 53 197 61 269 62
580 0 267 10 469 22 482 12 11 111 21 121 12 6 -5 13 -57 17 -116 7 -119 23
-171 69 -237 83 -122 232 -190 410 -189 227 1 408 94 505 258 48 80 67 150 67
243 0 131 -41 226 -146 339 l-55 60 27 25 c15 14 53 44 84 67 52 37 59 47 78
107 25 83 25 115 0 163 -40 79 -157 142 -233 126 -82 -18 -188 -92 -378 -266
l-95 -88 -245 -26 c-381 -41 -351 -40 -372 -17 -10 11 -49 82 -86 160 -158
320 -330 553 -613 827 -585 569 -1411 987 -2211 1120 -247 40 -425 56 -727 62
-647 13 -1090 -45 -1655 -217 l-130 -39 -21 20 c-12 11 -48 68 -80 127 -114
208 -284 402 -415 472 -99 52 -241 72 -359 49z m3155 -918 c367 -50 740 -149
1031 -276 200 -87 231 -115 255 -222 10 -41 9 -62 0 -94 -24 -81 -122 -158
-201 -159 -36 0 -167 43 -365 120 -219 85 -440 143 -665 176 -86 12 -218 18
-522 21 -453 6 -510 2 -789 -52 -101 -20 -193 -34 -205 -31 -39 10 -114 77
-144 129 -36 63 -39 113 -9 174 54 112 193 161 599 212 91 11 179 23 195 25
17 2 174 3 350 1 247 -3 354 -9 470 -24z m-2758 -1142 c61 -26 127 -91 154
-152 34 -77 33 -184 -3 -253 -76 -145 -241 -201 -396 -134 -208 89 -217 409
-16 522 87 48 174 54 261 17z m6784 -995 c22 -24 22 -24 3 -39 -23 -17 -100
-45 -126 -45 -33 0 -20 58 24 107 17 18 25 20 48 12 15 -6 38 -21 51 -35z"/>
</g>
</svg>
